<svg width="64" height="64" viewBox="0 0 64 64" fill="none" xmlns="http://www.w3.org/2000/svg">
<path d="M32 56C42 56 47 56 50.504 53.4533C51.6357 52.631 52.631 51.6357 53.4533 50.504C56 47 56 41.9973 56 32C56 22.0027 56 17 53.4533 13.496C52.631 12.3643 51.6357 11.369 50.504 10.5467C47 8 41.9973 8 32 8C22.0027 8 17 8 13.496 10.5467C12.3645 11.3682 11.3692 12.3625 10.5467 13.4933C8 17 8 22.0027 8 32C8 41.9973 8 47 10.5467 50.504C11.369 51.6357 12.3643 52.631 13.496 53.4533C17 56 22.0027 56 32 56Z" fill="#434343"/>
<path d="M20 22L23.1359 24.7014C24.4521 25.8387 25.1114 26.4061 25.1114 27.1114C25.1114 27.8168 24.4521 28.3842 23.1359 29.5215L20 32.2229M30.2229 32.2229H37.89" stroke="#95B9F4" stroke-width="3.83357" stroke-linecap="round" stroke-linejoin="round"/>
</svg>
